# xmcd
# Track frame offsets:
# 183
# 18163
# 37695
# 51510
# 71358
# 86680
# 105120
# 121810
# 140393
# 154608
# 170973
#
# Disc length: 2472 seconds
# Revision: 0
# Processed by: cddbd v1.5.1PL2 Copyright (c) Steve Scherf et al.
# Submitted via: VisiTrax 2.10.0.248 - For more info visit www.synapsa.com
#
DISCID=8109a60b
DTITLE=Omar Dykes - Muddy Springs Road
DYEAR=1995
DGENRE=Blues
TTITLE0=Muddy Springs Road
TTITLE1=Black Bottom
TTITLE2=Midnight Ramblin' Man
TTITLE3=Hoo Doo Ball
TTITLE4=Life Is Just A Circle
TTITLE5=Life Without You
TTITLE6=Exactly What I Thought She'd Do
TTITLE7=Everywhere I Go
TTITLE8=Get Hip
TTITLE9=Hurry, Hurry
TTITLE10=Dangerous Man
EXTD=
EXTT0=
EXTT1=
EXTT2=
EXTT3=
EXTT4=
EXTT5=
EXTT6=
EXTT7=
EXTT8=
EXTT9=
EXTT10=
PLAYORDER=
